<svg id="logo" xmlns="http://www.w3.org/2000/svg" width="164" height="36" viewBox="0 0 164 36">
  <path id="logo-2" d="M122.592,34.944A18.439,18.439,0,0,1,115.7,33.69a16.553,16.553,0,0,1-5.61-3.762,16.842,16.842,0,0,1-3.726-5.622,18.371,18.371,0,0,1-1.242-6.834,18.37,18.37,0,0,1,1.242-6.834,16.85,16.85,0,0,1,3.726-5.622,16.556,16.556,0,0,1,5.61-3.762A18.441,18.441,0,0,1,122.592,0a17.277,17.277,0,0,1,8.352,2.088,15.87,15.87,0,0,1,6.048,5.688l-6.624,3.84A7.591,7.591,0,0,0,127.2,8.568a9.832,9.832,0,0,0-4.608-1.08,9.535,9.535,0,0,0-7.128,2.736,9.99,9.99,0,0,0-2.664,7.248,9.992,9.992,0,0,0,2.664,7.249,9.537,9.537,0,0,0,7.128,2.736,9.8,9.8,0,0,0,4.632-1.1,7.492,7.492,0,0,0,3.144-3.024l6.624,3.84a15.525,15.525,0,0,1-6,5.688A17.389,17.389,0,0,1,122.592,34.944Zm-44.256-.672H68.544L57.6.672H66l7.44,24.719L80.88.672h8.4l-10.944,33.6Zm83.856,0H141.072V.672h20.88V8.064h-13.2v5.568h12v7.3h-12V26.88h13.44v7.391Zm-61.871,0H92.64V.672h7.681Zm-44.64,0H34.56V.672H55.44V8.064H42.24v5.568h12v7.3h-12V26.88H55.68v7.391Zm-42.241,0H0V.672H13.44a16.61,16.61,0,0,1,6.39,1.206A15.669,15.669,0,0,1,25.08,5.5,16.238,16.238,0,0,1,28.59,10.9a17.981,17.981,0,0,1,1.17,6.57,17.984,17.984,0,0,1-1.17,6.57,16.237,16.237,0,0,1-3.51,5.406,15.676,15.676,0,0,1-5.25,3.618A16.607,16.607,0,0,1,13.44,34.272ZM7.68,8.064V26.88h5.76A8.591,8.591,0,0,0,19.9,24.312a9.488,9.488,0,0,0,2.471-6.84,9.491,9.491,0,0,0-2.471-6.84A8.594,8.594,0,0,0,13.44,8.064Z" transform="translate(0.88 0.728)"/>
</svg>
